<svg width="400" height="165" viewBox="0 0 400 165" fill="none" xmlns="http://www.w3.org/2000/svg" role="img" aria-labelledby="title desc">
  <title id="title">C0qUX GitHub Stats</title>
  <desc id="desc">Profile statistics generated from the GitHub API.</desc>
  <style>
    .title { fill: #38BDF8; font: 600 14px -apple-system,BlinkMacSystemFont,Segoe UI,sans-serif; }
    .label { fill: #C9D1D9; font: 12px -apple-system,BlinkMacSystemFont,Segoe UI,sans-serif; }
    .value { fill: #C9D1D9; font: 600 12px -apple-system,BlinkMacSystemFont,Segoe UI,sans-serif; text-anchor: end; }
    .scope { fill: #8B949E; font: 10px -apple-system,BlinkMacSystemFont,Segoe UI,sans-serif; }
    .live { fill: #38BDF8; font: 700 18px -apple-system,BlinkMacSystemFont,Segoe UI,sans-serif; text-anchor: middle; }
  </style>
  <rect x="0.5" y="0.5" width="399" height="164" rx="4" fill="#0D1117" stroke="#30363D"/>
  <text x="24" y="30" class="title">C0qUX's GitHub Stats</text>
  
        <text x="44" y="65" class="label">Total Stars Earned:</text>
        <text x="292" y="65" class="value">1</text>
        <circle cx="26" cy="61" r="4" fill="#A78BFA"/>
        <text x="44" y="83" class="label">Total Commits:</text>
        <text x="292" y="83" class="value">196</text>
        <circle cx="26" cy="79" r="4" fill="#38BDF8"/>
        <text x="44" y="101" class="label">Total PRs:</text>
        <text x="292" y="101" class="value">8</text>
        <circle cx="26" cy="97" r="4" fill="#A78BFA"/>
        <text x="44" y="119" class="label">Total Issues:</text>
        <text x="292" y="119" class="value">4</text>
        <circle cx="26" cy="115" r="4" fill="#38BDF8"/>
        <text x="44" y="137" class="label">Contributions (last year):</text>
        <text x="292" y="137" class="value">195</text>
        <circle cx="26" cy="133" r="4" fill="#A78BFA"/>
        <text x="44" y="155" class="label">Private/Restricted:</text>
        <text x="292" y="155" class="value">29</text>
        <circle cx="26" cy="151" r="4" fill="#38BDF8"/>
  <circle cx="350" cy="82" r="35" stroke="#21262D" stroke-width="5"/>
  <path d="M350 47a35 35 0 1 1-29.7 16.5" stroke="#38BDF8" stroke-width="5" stroke-linecap="round"/>
  <text x="350" y="88" class="live">API</text>
  <text x="350" y="118" class="scope" text-anchor="middle">Token-visible scope</text>
</svg>
