<svg width="420" height="180" viewBox="0 0 420 180" fill="none" xmlns="http://www.w3.org/2000/svg" role="img" aria-labelledby="title desc">
  <title id="title">Most Used Languages</title>
  <desc id="desc">Language percentages across visible owned repositories.</desc>
  <style>
    .title { fill: #38BDF8; font: 600 15px -apple-system,BlinkMacSystemFont,Segoe UI,sans-serif; }
    .legend { fill: #C9D1D9; font: 12px -apple-system,BlinkMacSystemFont,Segoe UI,sans-serif; }
  </style>
  <rect x="0.5" y="0.5" width="419" height="179" rx="6" fill="#0D1117" stroke="#30363D"/>
  <text x="30" y="40" class="title">My Programming Languages</text>
  <clipPath id="bar"><rect x="30" y="62" width="310" height="8" rx="4"/></clipPath>
  <g clip-path="url(#bar)">
    <rect x="30" y="62" width="310" height="8" fill="#21262D"/>
    <rect x="30" y="62" width="135.78" height="8" fill="#3178c6" /><rect x="165.78324523807774" y="62" width="46.76" height="8" fill="#f1e05a" /><rect x="212.5435023929073" y="62" width="45.41" height="8" fill="#3572A5" /><rect x="257.9546156277798" y="62" width="41.06" height="8" fill="#663399" /><rect x="299.01234681350024" y="62" width="39.42" height="8" fill="#178600" /><rect x="338.42865754592833" y="62" width="1.57" height="8" fill="#384d54" />
  </g>
  
        <circle cx="30" cy="96" r="5" fill="#3178c6"/>
        <text x="44" y="100" class="legend">TypeScript (43.80%)</text>
        <circle cx="200" cy="96" r="5" fill="#f1e05a"/>
        <text x="214" y="100" class="legend">JavaScript (15.08%)</text>
        <circle cx="30" cy="121" r="5" fill="#3572A5"/>
        <text x="44" y="125" class="legend">Python (14.65%)</text>
        <circle cx="200" cy="121" r="5" fill="#663399"/>
        <text x="214" y="125" class="legend">CSS (13.24%)</text>
        <circle cx="30" cy="146" r="5" fill="#178600"/>
        <text x="44" y="150" class="legend">C# (12.71%)</text>
        <circle cx="200" cy="146" r="5" fill="#384d54"/>
        <text x="214" y="150" class="legend">Dockerfile (0.51%)</text>
</svg>
